<svg xmlns="http://www.w3.org/2000/svg" viewBox="6 6 52 52"><path fill="#faefde" d="M7 23h50v28a6 6 0 0 1-6 6H13a6 6 0 0 1-6-6V23Z"/><path fill="#efd8be" d="M6.89 51H57v1.23a5 5 0 0 1-5 5H11.89a5 5 0 0 1-5-5V51Z"/><path fill="#cda1a7" d="M13 7h38a6 6 0 0 1 6 6v10H7V13a6 6 0 0 1 6-6Z"/><path fill="#bbdef9" d="M45 11h8v6h-8z"/><path fill="#ffeb9b" d="M32 19a13 13 0 1 0 0 26 13 13 0 1 0 0-26Z"/><path fill="#bbdef9" d="M32 22a10 10 0 1 0 0 20 10 10 0 1 0 0-20Z"/><path fill="#d2edff" d="M32 27a5 5 0 1 0 0 10 5 5 0 1 0 0-10Z"/><path fill="#f3f3f3" d="M30 27a3 3 0 1 0 0 6 3 3 0 1 0 0-6zm5.5 7a1.5 1.5 0 1 0 0 3 1.5 1.5 0 1 0 0-3z"/><path fill="#8d6c9f" d="M51 6H13a7 7 0 0 0-7 7v38a7 7 0 0 0 7 7h38a7 7 0 0 0 7-7V13a7 7 0 0 0-7-7ZM13 8h1v3a1 1 0 0 0 2 0V8h35a5 5 0 0 1 5 5v9H42a.78.78 0 0 1-.25 0 14 14 0 0 0-19.53 0 1.27 1.27 0 0 1-.22 0H8v-9a5 5 0 0 1 5-5Zm19 12a12 12 0 1 1-12 12 12 12 0 0 1 12-12Zm19 36H13a5 5 0 0 1-5-5V24h12.53a14 14 0 1 0 22.95 0H56v27a5 5 0 0 1-5 5Z"/><path fill="#8d6c9f" d="M32 42a10 10 0 1 0-10-10 10 10 0 0 0 10 10zm0-18a8 8 0 1 1-8 8 8 8 0 0 1 8-8zm15-6h4a3 3 0 0 0 3-3v-2a3 3 0 0 0-3-3h-4a3 3 0 0 0-3 3v2a3 3 0 0 0 3 3zm-1-5a1 1 0 0 1 1-1h4a1 1 0 0 1 1 1v2a1 1 0 0 1-1 1h-4a1 1 0 0 1-1-1zM12 49a1 1 0 0 0-1 1v2a1 1 0 0 0 2 0v-2a1 1 0 0 0-1-1zm5 0a1 1 0 0 0-1 1v2a1 1 0 0 0 2 0v-2a1 1 0 0 0-1-1zm5 0a1 1 0 0 0-1 1v2a1 1 0 0 0 2 0v-2a1 1 0 0 0-1-1zm5 0a1 1 0 0 0-1 1v2a1 1 0 0 0 2 0v-2a1 1 0 0 0-1-1zm10 0a1 1 0 0 0-1 1v2a1 1 0 0 0 2 0v-2a1 1 0 0 0-1-1zm-5 0a1 1 0 0 0-1 1v2a1 1 0 0 0 2 0v-2a1 1 0 0 0-1-1zm10 0a1 1 0 0 0-1 1v2a1 1 0 0 0 2 0v-2a1 1 0 0 0-1-1zm5 0a1 1 0 0 0-1 1v2a1 1 0 0 0 2 0v-2a1 1 0 0 0-1-1zm5 0a1 1 0 0 0-1 1v2a1 1 0 0 0 2 0v-2a1 1 0 0 0-1-1zM15 20a1 1 0 0 0 1-1v-4a1 1 0 0 0-2 0v4a1 1 0 0 0 1 1z"/></svg>