<svg xmlns="http://www.w3.org/2000/svg" viewBox="14.98 15 70.02 70.03"><path fill="#fff" d="M50 16c-18.778 0-34 15.222-34 34a33.834 33.834 0 0 0 4.444 16.799l-4.407 15.933a1 1 0 0 0 1.23 1.23L33.2 79.555A33.83 33.83 0 0 0 50 84c18.778 0 34-15.222 34-34S68.778 16 50 16z"/><path fill="#60be92" d="M50 22c-15.464 0-28 12.536-28 28 0 6.122 1.97 11.78 5.303 16.388L24.89 75.11l8.723-2.413A27.863 27.863 0 0 0 50 78c15.464 0 28-12.536 28-28S65.464 22 50 22z"/><path fill="#fff" d="M41.896 35.949c-.608-1.375-1.25-1.402-1.832-1.422-.475-.02-1.016-.02-1.558-.02-.535 0-1.417.203-2.159 1.029-.749.819-2.848 2.81-2.848 6.86 0 4.043 2.915 7.957 3.316 8.505.408.542 5.622 9.115 13.871 12.413 6.859 2.736 8.256 2.194 9.74 2.059 1.491-.142 4.807-1.991 5.482-3.914.675-1.916.675-3.562.475-3.907-.201-.345-.742-.549-1.558-.962-.809-.413-4.8-2.397-5.549-2.675-.742-.271-1.284-.406-1.825.413-.541.819-2.099 2.675-2.574 3.223-.475.549-.943.616-1.758.21-.809-.413-3.423-1.28-6.525-4.083-2.413-2.18-4.044-4.869-4.519-5.695-.475-.819-.053-1.266.354-1.679.368-.366.816-.962 1.223-1.442.401-.481.535-.819.809-1.368.267-.549.134-1.029-.067-1.442-.198-.415-1.776-4.478-2.498-6.103z"/><path fill="#1f212b" d="M16.991 85.001a1.971 1.971 0 0 1-1.404-.588 1.976 1.976 0 0 1-.514-1.947l4.298-15.536A35.002 35.002 0 0 1 15 50c0-19.299 15.701-35 35-35s35 15.701 35 35-15.701 35-35 35a35.002 35.002 0 0 1-16.93-4.371l-15.536 4.298a2.03 2.03 0 0 1-.543.074zm16.21-6.445c.172 0 .343.044.495.131A32.988 32.988 0 0 0 50 83c18.196 0 33-14.804 33-33S68.196 17 50 17 17 31.804 17 50a32.988 32.988 0 0 0 4.313 16.304.999.999 0 0 1 .095.762L17.001 83l15.934-4.407a.929.929 0 0 1 .266-.037z"/><path fill="#1f212b" d="M58.768 66.008c-1.412 0-3.61-.373-8.266-2.229-4.988-1.994-9.93-6.371-13.913-12.323-.086-.127-.143-.214-.173-.254C35.371 49.774 33 46.133 33 42.396c0-4.002 1.984-6.13 2.832-7.039l.146-.158c.966-1.076 2.09-1.192 2.528-1.192.55 0 1.098 0 1.579.021.772.027 1.587.183 2.268 1.72.428.963 1.14 2.741 1.712 4.169.363.906.706 1.762.781 1.917.21.434.445 1.101.066 1.879l-.123.251c-.21.43-.376.77-.752 1.219-.135.159-.271.328-.409.497-.285.352-.58.716-.846.979-.4.406-.553.592-.273 1.074.568.989 2.134 3.509 4.421 5.574 2.528 2.285 4.687 3.237 5.847 3.748.238.104.43.19.57.262.681.34.873.231 1.153-.092.496-.574 2.02-2.393 2.534-3.172.792-1.2 1.768-.842 2.413-.607.818.303 4.97 2.375 5.605 2.699l.442.219c.628.307 1.082.528 1.32.937.326.563.229 2.436-.436 4.325-.773 2.2-4.343 4.097-5.906 4.246-.141.013-.278.028-.42.046-.376.042-.781.09-1.284.09zM38.536 35.006c-.251 0-1.067.029-1.816.863l-.156.169c-.833.893-2.564 2.75-2.564 6.358 0 3.442 2.236 6.867 3.197 8.181.053.07.122.172.223.322 3.872 5.787 8.65 10.031 13.453 11.951 6.078 2.424 7.734 2.229 9.064 2.073.15-.019.297-.035.444-.049 1.292-.123 4.45-1.859 5.056-3.582.624-1.772.615-3.244.507-3.504-.078-.132-.452-.315-.887-.526l-.457-.227c-.944-.482-4.804-2.396-5.497-2.652-.721-.262-.908-.272-1.234.22-.584.885-2.234 2.839-2.612 3.275-.808.933-1.687.667-2.359.33-.133-.067-.308-.144-.523-.239-1.125-.496-3.466-1.527-6.113-3.921-2.394-2.162-4.026-4.788-4.617-5.816-.672-1.16.046-1.889.431-2.279.239-.238.509-.572.778-.904.142-.175.283-.35.42-.511.296-.354.425-.617.619-1.015l.125-.254c.147-.302.127-.594-.07-1.001-.086-.178-.35-.834-.809-1.98-.569-1.421-1.278-3.189-1.698-4.136v-.002c-.484-1.093-.885-1.106-1.393-1.124-.465-.02-.987-.02-1.512-.02z"/><path fill="#1f212b" d="M50 78a27.812 27.812 0 0 1-15.858-4.931l-9.118 2.522a.498.498 0 0 1-.615-.615l2.521-9.117A27.82 27.82 0 0 1 22 50c0-15.439 12.561-28 28-28 2.574 0 5.144.357 7.636 1.063a.5.5 0 0 1-.271.963A27.032 27.032 0 0 0 50 23c-14.888 0-27 12.112-27 27a26.82 26.82 0 0 0 4.884 15.479.499.499 0 0 1 .072.421l-2.35 8.493 8.494-2.35a.497.497 0 0 1 .421.072A26.818 26.818 0 0 0 50 77c14.888 0 27-12.112 27-27 0-7.181-2.789-13.941-7.854-19.036a.5.5 0 0 1 .709-.705C75.107 35.543 78 42.554 78 50c0 15.439-12.561 28-28 28z"/><path fill="#1f212b" d="M63.5 26.545a.507.507 0 0 1-.246-.064 26.823 26.823 0 0 0-2.945-1.438.5.5 0 0 1 .382-.924 28.29 28.29 0 0 1 3.055 1.491.5.5 0 0 1-.246.935zm4 2.741a.497.497 0 0 1-.318-.114 26.81 26.81 0 0 0-1.964-1.474.5.5 0 0 1 .564-.826 27.99 27.99 0 0 1 2.036 1.528.5.5 0 0 1-.318.886z"/></svg>