<svg id="svg" version="1.1" xmlns="http://www.w3.org/2000/svg" width="400" height="400"><g id="svgg" stroke="none" fill-rule="evenodd"><path id="path0" d="M340.2 30.4c-.136.22-.687.4-1.224.4-.537 0-.976.18-.976.4 0 .22-.36.4-.8.4-.44 0-.8.18-.8.4 0 .22-.234.4-.52.4-.736 0-2.673.941-2.677 1.3-.002.165-.363.3-.803.3-.44 0-.8.18-.8.4 0 .22-.341.4-.757.4-1.081 0-1.349 1.073-.802 3.207.992 3.871.633 4.47-6.531 10.897-4.756 4.267-13.11 15.305-13.11 17.323 0 .1-.378 1.035-.84 2.077-1.392 3.143-1.489 3.399-2.312 6.096-.799 2.623-1.154 3.986-2.085 8-.661 2.847-.698 16.659-.053 19.4.259 1.1.569 2.495.688 3.1.12.605.398 1.1.62 1.1.757 0 70.9-70.442 70.521-70.821-1.55-1.55-16.522-2.141-23.877-.943-5.952.97-8.197.308-9.7-2.859-.661-1.393-2.545-1.975-3.162-.977m10.413 49.187c-22.465 22.466-35.36 35.641-34.994 35.751 4.539 1.366 19.354 1.821 23.981.737 6.279-1.472 7.334-1.772 10.8-3.077 1.924-.724 8.467-3.839 8.8-4.189.11-.116.659-.446 1.22-.734 3.514-1.806 13.636-10.999 15.388-13.975.42-.715.906-1.3 1.078-1.3.173 0 .314-.211.314-.469 0-.257.285-.783.633-1.168 3.702-4.091 8.338-16.462 9.579-25.563.859-6.304.374-17.266-.92-20.763-.264-.714-5.1 3.969-35.879 34.75M212.2 283.571c-4.293.565-5.946 1.167-5.33 1.942 2.643 3.327 70.333 70.363 70.65 69.967 1.726-2.151 2.02-18.421.464-25.68a98.886 98.886 0 0 1-.65-3.304c-.122-.717-.383-1.402-.578-1.523-.196-.121-.356-.572-.356-1.002a3.88 3.88 0 0 0-.353-1.476c-.194-.382-.953-2.135-1.687-3.895-4.552-10.921-13.659-21.432-23.472-27.089-5.621-3.241-11.358-5.582-16.488-6.73-1.21-.27-2.83-.66-3.6-.865-1.848-.493-15.542-.747-18.6-.345M196.865 296.7a214.06 214.06 0 0 0-.864 5.577c-1.539 11.044 2.546 28.141 8.832 36.969.422.593.767 1.275.767 1.516 0 .241.141.438.314.438.172 0 .607.495.966 1.1 4.256 7.176 17.141 17.051 26.72 20.48.77.275 1.76.649 2.2.83.929.382 6.518 1.719 10 2.392 4.535.876 21.088.07 22.241-1.083.392-.392-69.644-70.919-70.426-70.919-.158 0-.495 1.215-.75 2.7" fill="#3D8F51"/><path id="path1" d="M354.4 21.2c0 .222-1.067.4-2.4.4s-2.4.178-2.4.4c0 .22-.722.4-1.605.4-2.162 0-3.069.534-5.123 3.014-.742.896-.832 3.826-.138 4.526.366.37.991 1.174 1.388 1.786 1.82 2.805 3.158 3.012 11.078 1.712 7.153-1.174 22.108-.115 22.681 1.605.174.523-71.003 71.757-71.699 71.757-2.059 0-2.814-19.905-1.024-27 1.025-4.064 1.573-5.947 2.151-7.4.219-.55.536-1.36.704-1.8 3.148-8.238 9.456-17.41 15.441-22.451 6.473-5.452 6.568-5.619 5.964-10.541-.336-2.736-.922-3.573-2.518-3.595-.495-.007-.9-.193-.9-.413 0-.22-.81-.4-1.8-.4s-1.8.18-1.8.4c0 .22-.36.4-.8.4-.44 0-.8.18-.8.4 0 .22-.252.4-.559.4-.308 0-1.479.9-2.602 2-1.124 1.1-2.13 2-2.236 2-.573 0-3.601 2.942-5.751 5.588-.798.983-1.947 2.315-2.552 2.959-.605.644-1.1 1.375-1.1 1.624 0 .249-.36.712-.8 1.029-.44.317-.8.857-.8 1.2 0 .343-.36.883-.8 1.2-.44.317-.8.814-.8 1.105 0 .291-.36.915-.8 1.387-.44.472-.8 1.095-.8 1.383 0 .289-.18.525-.4.525-.22 0-.4.36-.4.8 0 .44-.146.8-.325.8-.179 0-.573.63-.875 1.4-.302.77-.696 1.4-.875 1.4-.179 0-.325.349-.325.776 0 .427-.18.888-.4 1.024-.22.136-.4.687-.4 1.224 0 .537-.18.976-.4.976-.22 0-.4.36-.4.8 0 .44-.18.8-.4.8-.22 0-.4.54-.4 1.2 0 .66-.18 1.2-.4 1.2-.22 0-.4.529-.4 1.176 0 .647-.18 1.288-.4 1.424-.22.136-.4.856-.4 1.6 0 .744-.18 1.464-.4 1.6-.22.136-.4.921-.4 1.744s-.162 1.667-.361 1.876c-1.684 1.772-.928 30.98.801 30.98.198 0 .36.619.36 1.376 0 .757.18 1.488.4 1.624.22.136.4.777.4 1.424 0 .647.18 1.176.4 1.176 1.035 0-.144 1.366-7.4 8.575-4.29 4.261-7.8 7.863-7.8 8.003 0 .141-.36.642-.8 1.114-.872.936-1.212 6.308-.4 6.308.22 0 .4.178.4.395 0 .609 1.315 2.005 1.889 2.005.281 0 .511.18.511.4 0 .236 1.415.4 3.446.4h3.445l8.133-8.2c7.541-7.603 8.236-8.2 9.554-8.2.782 0 1.422.18 1.422.4 0 .22.529.4 1.176.4.647 0 1.288.18 1.424.4.136.22.957.4 1.824.4.867 0 1.576.18 1.576.4 0 .22.9.4 2 .4s2 .18 2 .4c0 .242 1.733.4 4.4.4 2.667 0 4.4.158 4.4.4 0 .226 1.133.4 2.6.4s2.6-.174 2.6-.4c0-.241 1.659-.4 4.176-.4 2.353 0 4.285-.175 4.424-.4.136-.22 1.227-.4 2.424-.4 1.197 0 2.176-.18 2.176-.4 0-.22.72-.4 1.6-.4.88 0 1.6-.18 1.6-.4 0-.22.63-.4 1.4-.4.77 0 1.4-.18 1.4-.4 0-.22.529-.4 1.176-.4.647 0 1.278-.164 1.402-.365.125-.201.944-.487 1.822-.635.878-.148 1.697-.434 1.822-.635.124-.201.575-.365 1.002-.365.427 0 .776-.18.776-.4 0-.22.36-.4.8-.4.44 0 .8-.18.8-.4 0-.22.36-.4.8-.4.44 0 .8-.18.8-.4 0-.22.36-.4.8-.4.44 0 .8-.18.8-.4 0-.22.36-.4.8-.4.44 0 .8-.18.8-.4 0-.22.236-.4.525-.4.288 0 .911-.36 1.383-.8.472-.44 1.096-.8 1.387-.8.291 0 .788-.36 1.105-.8.317-.44.78-.8 1.029-.8.249 0 1.017-.54 1.708-1.2.691-.66 1.345-1.2 1.454-1.2.521 0 11.809-11.123 11.809-11.636 0-.204.54-.936 1.2-1.627.66-.691 1.2-1.416 1.2-1.613 0-.197.36-.744.8-1.216.44-.472.8-1.095.8-1.383 0-.289.147-.525.326-.525.398 0 1.674-2.601 1.674-3.414 0-.322.18-.586.4-.586.22 0 .4-.27.4-.6 0-.33.18-.6.4-.6.22 0 .4-.36.4-.8 0-.44.18-.8.4-.8.22 0 .4-.36.4-.8 0-.44.18-.8.4-.8.22 0 .4-.349.4-.776 0-.427.18-.888.4-1.024.22-.136.4-.687.4-1.224 0-.537.18-.976.4-.976.22 0 .4-.54.4-1.2 0-.66.18-1.2.4-1.2.22 0 .4-.54.4-1.2 0-.66.18-1.2.4-1.2.22 0 .4-.54.4-1.2 0-.66.18-1.2.4-1.2.22 0 .4-.774.4-1.72s.225-1.945.5-2.22c.382-.382.5-3.963.5-15.147 0-11.362-.112-14.684-.5-14.813-.287-.096-.5-.836-.5-1.733 0-.862-.18-1.567-.4-1.567-.22 0-.4-.54-.4-1.2 0-.66-.18-1.2-.4-1.2-.22 0-.4-.619-.4-1.376 0-.757-.18-1.488-.4-1.624-.22-.136-.4-.597-.4-1.024 0-.427-.18-.776-.4-.776-.22 0-.4-.278-.4-.618 0-.34-.405-1.038-.9-1.55a103.633 103.633 0 0 1-1.587-1.682c-2.148-2.346-4.354-3.75-5.893-3.75-.451 0-.82-.18-.82-.4 0-.22-.63-.4-1.4-.4-.77 0-1.4-.18-1.4-.4 0-.22-.63-.4-1.4-.4-.77 0-1.4-.18-1.4-.4 0-.22-.9-.4-2-.4s-2-.18-2-.4c0-.222-1.067-.4-2.4-.4s-2.4-.178-2.4-.4c0-.255-3.2-.4-8.8-.4-5.6 0-8.8.145-8.8.4M215.2 34.4c0 .22-.979.4-2.176.4s-2.288.18-2.424.4c-.136.22-.766.4-1.4.4-.634 0-1.264.18-1.4.4-.136.22-.597.4-1.024.4-.427 0-.776.18-.776.4 0 .22-.405.404-.9.409-.495.005-1.35.361-1.9.791-.55.43-1.225.786-1.5.791-.275.005-.5.189-.5.409 0 .22-.275.4-.611.4-1.106 0-7.444 6.202-8.198 8.021-.268.649-.646 1.179-.84 1.179-.193 0-.351.36-.351.8 0 .44-.18.8-.4.8-.22 0-.4.36-.4.8 0 .44-.18.8-.4.8-.22 0-.4.54-.4 1.2 0 .66-.18 1.2-.4 1.2-.22 0-.4.72-.4 1.6 0 .88-.18 1.6-.4 1.6-.248 0-.4 2.2-.4 5.8 0 3.6.152 5.8.4 5.8.22 0 .4.72.4 1.6 0 .88.18 1.6.4 1.6.22 0 .4.45.4 1s.18 1 .4 1c.22 0 .4.36.4.8 0 .44.159.8.354.8.195 0 .664.652 1.043 1.45.819 1.726 5.529 6.55 6.396 6.55.334 0 .607.147.607.326 0 .466 3.131 2.074 4.038 2.074.419 0 .762.18.762.4 0 .22.54.4 1.2.4.66 0 1.2.18 1.2.4 0 .22.979.4 2.176.4s2.288.18 2.424.4c.136.22 1.047.4 2.024.4.977 0 1.776-.18 1.776-.4 0-.222 1.067-.4 2.4-.4s2.4-.178 2.4-.4c0-.22.343-.4.762-.4 2.475 0 6.838-3.641 6.838-5.707 0-.733.225-1.571.5-1.863.4-.424.4-.567 0-.713-.275-.101-.5-.754-.5-1.45-.001-1.287-1.476-3.467-2.347-3.467-.249 0-.453-.18-.453-.4 0-.233-1.333-.4-3.2-.4-1.867 0-3.2.167-3.2.4 0 .22-.345.4-.767.4-.421 0-.837.213-.924.474-.212.636-6.812.616-7.025-.022-.083-.248-.479-.452-.881-.452-1.38 0-6.003-5.079-6.003-6.595 0-.333-.18-.605-.4-.605-.237 0-.4-1.467-.4-3.6s.163-3.6.4-3.6c.22 0 .4-.362.4-.805 0-1.838 5.489-8.395 7.027-8.395.315 0 .573-.18.573-.4 0-.22.36-.4.8-.4.44 0 .8-.18.8-.4 0-.22.439-.4.976-.4.537 0 1.088-.18 1.224-.4.136-.22.957-.4 1.824-.4.867 0 1.576-.18 1.576-.4 0-.222 1.067-.4 2.4-.4s2.4.178 2.4.4c0 .22.9.4 2 .4s2 .18 2 .4c0 .22.45.4 1 .4s1 .18 1 .4c0 .22.36.4.8.4.44 0 .8.18.8.4 0 .22.32.4.712.4.391 0 .971.36 1.288.8.317.44.821.8 1.119.8.747 0 5.514 4.974 6.155 6.422.287.648.657 1.178.824 1.178.166 0 .302.36.302.8 0 .44.18.8.4.8.22 0 .4.36.4.8 0 .44.16.8.356.8.196 0 .447.585.557 1.3.11.715.417 2.47.681 3.9.673 3.635.02 10.41-1.241 12.895-.194.382-.353 1.057-.353 1.5 0 .443-.18.805-.4.805-.22 0-.4.36-.4.8 0 .44-.18.8-.4.8-.22 0-.4.36-.4.8 0 .44-.18.8-.4.8-.22 0-.4.36-.4.8 0 .44-.18.8-.4.8-.22 0-.4.32-.4.712 0 .391-.36.971-.8 1.288-.44.317-.802.762-.803.988-.002.227-.895 1.312-1.984 2.412-1.088 1.1-1.993 2.18-2.01 2.4-.018.22-.857 1.12-1.865 2-1.008.88-2.626 2.365-3.596 3.3-.97.935-1.912 1.7-2.093 1.7-.182 0-.895.54-1.586 1.2-.691.66-1.488 1.2-1.771 1.2-.283 0-.775.36-1.092.8-.317.44-.897.8-1.288.8-.392 0-.712.18-.712.4 0 .22-.345.4-.767.4-.421 0-.826.135-.9.3-.073.165-1.213.816-2.533 1.446-1.32.63-2.713 1.305-3.095 1.5-.382.195-.967.354-1.3.354-.333 0-.605.18-.605.4 0 .22-.36.4-.8.4-.44 0-.8.18-.8.4 0 .22-.54.4-1.2.4-.66 0-1.2.18-1.2.4 0 .22-.54.4-1.2.4-.66 0-1.2.18-1.2.4 0 .22-.72.4-1.6.4-.88 0-1.6.18-1.6.4 0 .22-.799.4-1.776.4s-1.888.18-2.024.4c-.314.507-13.094.54-13.62.035-.209-.2-1.37-.462-2.58-.582-3.706-.366-5.595-.721-5.826-1.095-.122-.197-.841-.358-1.598-.358-.757 0-1.376-.18-1.376-.4 0-.22-.529-.4-1.176-.4-.647 0-1.288-.18-1.424-.4-.136-.22-.676-.4-1.2-.4-.524 0-1.064-.18-1.2-.4-.136-.22-.687-.4-1.224-.4-.537 0-.976-.18-.976-.4 0-.22-.54-.4-1.2-.4-.66 0-1.2-.142-1.2-.315 0-.173-1.17-.668-2.6-1.1-1.43-.432-2.6-.92-2.6-1.085 0-.165-.45-.3-1-.3s-1-.18-1-.4c0-.22-.45-.4-1-.4s-1-.18-1-.4c0-.22-.36-.4-.8-.4-.44 0-.8-.18-.8-.4 0-.22-.36-.4-.8-.4-.44 0-.8-.18-.8-.4 0-.22-.36-.4-.8-.4-.44 0-.8-.18-.8-.4 0-.231-1.267-.4-3-.4-1.65 0-3 .136-3 .302 0 .167-.54.542-1.2.834-.731.323-1.2.831-1.2 1.298 0 .421-.18.766-.4.766-.22 0-.4.54-.4 1.2 0 .66-.18 1.2-.4 1.2-.22 0-.4.27-.4.6 0 .33.18.6.4.6.22 0 .4.636.4 1.413 0 1.5 2.152 4.187 3.353 4.187.319 0 .64.136.714.302.073.166 1.393.905 2.933 1.642 1.54.737 3.113 1.501 3.495 1.698.382.197.967.358 1.3.358.333 0 .605.18.605.4 0 .22.36.4.8.4.44 0 .8.18.8.4 0 .22.54.4 1.2.4.66 0 1.2.18 1.2.4 0 .22.349.4.776.4.427 0 .888.18 1.024.4.136.22.599.4 1.029.4.43 0 1.094.174 1.476.387 1.159.646 4.461 1.613 5.509 1.613.542 0 .986.18.986.4 0 .22.72.4 1.6.4.88 0 1.6.18 1.6.4 0 .22.72.4 1.6.4.88 0 1.6.18 1.6.4 0 .22.9.4 2 .4s2 .18 2 .4c0 .226 1.133.4 2.6.4s2.6.174 2.6.4c0 .253 2.867.4 7.8.4s7.8-.147 7.8-.4c0-.226 1.133-.4 2.6-.4s2.6-.174 2.6-.4c0-.22.81-.4 1.8-.4s1.8-.18 1.8-.4c0-.22.63-.4 1.4-.4.77 0 1.4-.18 1.4-.4 0-.22.54-.4 1.2-.4.66 0 1.2-.18 1.2-.4 0-.22.468-.4 1.04-.4.571 0 1.651-.27 2.4-.6.748-.33 1.945-.851 2.66-1.158 2.807-1.204 4.986-2.294 6.9-3.451 1.1-.665 2.27-1.328 2.6-1.472.33-.145.891-.591 1.247-.991.356-.401.901-.728 1.212-.728.31 0 .824-.36 1.141-.8.317-.44.825-.8 1.128-.8.303 0 1.055-.54 1.672-1.2.617-.66 1.323-1.2 1.569-1.2.954 0 12.431-11.605 12.431-12.569 0-.25.36-.714.8-1.031.44-.317.8-.857.8-1.2 0-.343.36-.883.8-1.2.44-.317.8-.897.8-1.288 0-.392.136-.712.303-.712.167 0 .752-.985 1.3-2.189.548-1.204 1.132-2.194 1.297-2.2.165-.006.3-.371.3-.811 0-.44.18-.8.4-.8.22 0 .4-.439.4-.976 0-.537.18-1.088.4-1.224.22-.136.4-.777.4-1.424 0-.647.18-1.176.4-1.176.22 0 .4-.72.4-1.6 0-.88.18-1.6.4-1.6.227 0 .4-1.173.4-2.72 0-1.496.196-2.916.435-3.155.275-.275.351-1.437.206-3.18-.126-1.51-.336-4.005-.467-5.545s-.404-2.971-.606-3.18c-.203-.209-.368-.963-.368-1.676s-.18-1.408-.4-1.544c-.22-.136-.4-.687-.4-1.224 0-.537-.18-.976-.4-.976-.22 0-.4-.54-.4-1.2 0-.66-.18-1.2-.4-1.2-.22 0-.4-.36-.4-.8 0-.44-.18-.8-.4-.8-.22 0-.4-.36-.4-.8 0-.44-.15-.8-.332-.8-.183 0-.587-.495-.898-1.1-.31-.605-.881-1.391-1.267-1.747-.387-.356-.703-.835-.703-1.065 0-.726-5.622-6.088-6.383-6.088-.229 0-.417-.15-.417-.332 0-.183-.495-.588-1.1-.9-.605-.313-1.449-.883-1.875-1.268-.427-.385-1.012-.7-1.3-.7-.289 0-.525-.18-.525-.4 0-.22-.36-.4-.8-.4-.44 0-.8-.18-.8-.4 0-.22-.439-.4-.976-.4-.537 0-1.088-.18-1.224-.4-.136-.22-.597-.4-1.024-.4-.427 0-.776-.18-.776-.4 0-.22-.72-.4-1.6-.4-.88 0-1.6-.18-1.6-.4 0-.22-.979-.4-2.176-.4s-2.288-.18-2.424-.4c-.137-.221-1.937-.4-4.024-.4-2.251 0-3.776.162-3.776.4m171.778 10.3c1.614 6.532 1.704 20.291.173 26.3-7.691 30.181-32.553 48.383-63.059 46.168-4.618-.335-8.993-1.135-9.616-1.759-.307-.306 71.164-71.809 71.777-71.809.249 0 .576.495.725 1.1M43.78 129.563c-.209.2-1.28.465-2.38.589-4.579.518-5.8.747-5.8 1.088 0 .198-.54.36-1.2.36-.66 0-1.2.18-1.2.4 0 .22-.63.4-1.4.4-.77 0-1.4.18-1.4.4 0 .22-.45.4-1 .4s-1 .18-1 .4c0 .22-.324.4-.72.4-.894 0-2.873.894-2.877 1.3-.002.165-.543.3-1.203.3s-1.2.18-1.2.4c0 .22-.36.4-.8.4-.44 0-.8.18-.8.4 0 .22-.32.4-.712.4-.391 0-.971.36-1.288.8-.317.44-.897.8-1.288.8-.392 0-.712.18-.712.4 0 .22-.36.4-.8.4-.44 0-.8.18-.8.4 0 .22-.236.4-.525.4-.288 0-.911.36-1.383.8-.472.44-1.065.8-1.318.8-.447 0-2.08 1.183-3.86 2.797-.487.442-1.04.803-1.229.803-.189 0-1.307.9-2.485 2s-2.303 2-2.499 2c-2.142 0-2.764 8.191-.783 10.312.661.708 1.491 1.288 1.842 1.288.352 0 .64.18.64.4 0 .22.99.4 2.2.4 1.21 0 2.2-.18 2.2-.4 0-.22.272-.4.604-.4.332 0 1.168-.54 1.859-1.2.691-.66 1.461-1.2 1.713-1.2s1.084-.585 1.85-1.3c.766-.715 1.883-1.555 2.483-1.868.6-.312 1.091-.717 1.091-.9 0-.182.236-.332.525-.332.288 0 .911-.36 1.383-.8.472-.44 1.046-.8 1.275-.8a.41.41 0 0 0 .417-.4c0-.22.27-.4.6-.4.33 0 .6-.146.6-.325 0-.179.63-.573 1.4-.875.77-.302 1.4-.696 1.4-.875 0-.179.36-.325.8-.325.44 0 .8-.18.8-.4 0-.22.36-.4.8-.4.44 0 .8-.18.8-.4 0-.22.36-.4.8-.4.44 0 .8-.18.8-.4 0-.22.36-.4.8-.4.44 0 .8-.18.8-.4 0-.22.54-.4 1.2-.4.66 0 1.2-.18 1.2-.4 0-.22.439-.4.976-.4.537 0 1.088-.18 1.224-.4.136-.22.777-.4 1.424-.4.647 0 1.176-.18 1.176-.4 0-.22.63-.4 1.4-.4.77 0 1.4-.18 1.4-.4 0-.22.9-.4 2-.4s2-.18 2-.4c0-.256 3.533-.4 9.8-.4 6.267 0 9.8.144 9.8.4 0 .222 1.067.4 2.4.4s2.4.178 2.4.4c0 .22.9.4 2 .4s2 .18 2 .4c0 .22.619.4 1.376.4.757 0 1.488.18 1.624.4.136.22.867.4 1.624.4.757 0 1.376.18 1.376.4 0 .22.54.4 1.2.4.66 0 1.2.18 1.2.4 0 .22.529.4 1.176.4.647 0 1.288.18 1.424.4.136.22.687.4 1.224.4.537 0 .976.18.976.4 0 .22.54.4 1.2.4.66 0 1.2.18 1.2.4 0 .22.54.4 1.2.4.66 0 1.2.18 1.2.4 0 .22.45.4 1 .4s1 .18 1 .4c0 .22.439.4.976.4.537 0 1.088.18 1.224.4.136.22.597.4 1.024.4.427 0 .776.18.776.4 0 .22.439.4.976.4.537 0 1.088.18 1.224.4.136.22.597.4 1.024.4.427 0 .776.147.776.328 0 .18.9.572 2 .872 1.1.3 2 .692 2 .872 0 .181.242.328.539.328.296 0 1.061.253 1.7.562 2.906 1.405 4.967 2.238 5.539 2.238.342 0 .622.18.622.4 0 .22.54.4 1.2.4.66 0 1.2.18 1.2.4 0 .22.36.4.8.4.44 0 .8.18.8.4 0 .22.36.4.8.4.44 0 .8.18.8.4 0 .22.439.4.976.4.537 0 1.088.18 1.224.4.136.22.597.4 1.024.4.427 0 .776.18.776.4 0 .22.36.4.8.4.44 0 .8.18.8.4 0 .22.349.4.776.4.427 0 .888.18 1.024.4.136.22.597.4 1.024.4.427 0 .776.18.776.4 0 .22.36.4.8.4.44 0 .8.18.8.4 0 .22.349.4.776.4.427 0 .888.18 1.024.4.136.22.687.4 1.224.4.537 0 .976.18.976.4 0 .22.36.4.8.4.44 0 .8.18.8.4 0 .22.54.4 1.2.4.66 0 1.2.18 1.2.4 0 .22.36.4.8.4.44 0 .8.18.8.4 0 .22.362.4.805.4.443 0 1.118.159 1.5.353.382.195 1.235.576 1.895.847.66.271 1.513.652 1.895.847a3.88 3.88 0 0 0 1.476.353c.43 0 .893.18 1.029.4.136.22.676.4 1.2.4.524 0 1.051.159 1.171.354.121.194 1.027.475 2.015.623.987.148 1.9.439 2.028.646.128.207.853.377 1.61.377.757 0 1.376.18 1.376.4 0 .22.54.4 1.2.4.66 0 1.2.18 1.2.4 0 .22.63.4 1.4.4.77 0 1.4.18 1.4.4 0 .22.72.4 1.6.4.88 0 1.6.18 1.6.4 0 .22.9.4 2 .4s2 .18 2 .4c0 .22.9.4 2 .4s2 .18 2 .4c0 .231 1.259.4 2.976.4 1.637 0 3.088.18 3.224.4.152.246 3.471.4 8.624.4 5.317 0 8.376-.146 8.376-.4 0-.229 1.2-.4 2.8-.4 1.6 0 2.8-.171 2.8-.4 0-.22.799-.4 1.776-.4s1.888-.18 2.024-.4c.136-.22.867-.4 1.624-.4.757 0 1.376-.18 1.376-.4 0-.22.529-.4 1.176-.4.647 0 1.288-.18 1.424-.4.136-.22.676-.4 1.2-.4.524 0 1.064-.18 1.2-.4.136-.22.687-.4 1.224-.4.537 0 .976-.18.976-.4 0-.22.45-.4 1-.4s1-.18 1-.4c0-.22.387-.4.86-.4.925 0 5.253-1.965 5.473-2.485.074-.173.479-.315.9-.315.422 0 .767-.158.767-.351 0-.194.54-.576 1.2-.849.66-.273 1.2-.655 1.2-.849 0-.193.32-.351.712-.351.391 0 .971-.36 1.288-.8.317-.44.857-.8 1.2-.8.343 0 .883-.36 1.2-.8.317-.44.78-.8 1.029-.8.249 0 1.017-.54 1.708-1.2.691-.66 1.437-1.2 1.659-1.2.222 0 .404-.15.404-.332 0-.183.447-.572.993-.864.547-.293 1.085-.818 1.196-1.168.111-.35.744-.877 1.406-1.17.735-.325 1.205-.832 1.205-1.3 0-.421.18-.766.4-.766.22 0 .4-.27.4-.6 0-.33.18-.6.4-.6.222 0 .4-1.067.4-2.4s-.178-2.4-.4-2.4c-.22 0-.4-.278-.4-.618 0-.674-1.335-2.09-2.717-2.882-1.773-1.016-5.721-.637-7.283.7-.77.659-1.549 1.199-1.731 1.199-.183.001-1.023.721-1.869 1.601-.846.88-1.728 1.6-1.962 1.6-.396 0-1.594.964-3.851 3.1-.523.495-1.133.9-1.355.9-.674 0-3.232 1.325-3.232 1.674 0 .179-.36.326-.8.326-.44 0-.8.18-.8.4 0 .22-.36.4-.8.4-.44 0-.8.18-.8.4 0 .22-.36.4-.8.4-.44 0-.8.18-.8.4 0 .22-.272.4-.605.4-.333 0-.963.18-1.4.4l-1.59.8c-.437.22-1.157.4-1.6.4-.443 0-.805.18-.805.4 0 .22-.54.4-1.2.4-.66 0-1.2.18-1.2.4 0 .22-.54.4-1.2.4-.66 0-1.2.18-1.2.4 0 .22-.9.4-2 .4s-2 .18-2 .4c0 .222-1.059.4-2.376.4-1.307 0-2.488.18-2.624.4-.149.241-2.937.4-7.024.4-4.251 0-6.776-.149-6.776-.4 0-.229-1.2-.4-2.8-.4-1.6 0-2.8-.171-2.8-.4 0-.22-.9-.4-2-.4s-2-.18-2-.4c0-.22-.81-.4-1.8-.4s-1.8-.18-1.8-.4c0-.22-.72-.4-1.6-.4-.88 0-1.6-.18-1.6-.4 0-.22-.54-.4-1.2-.4-.66 0-1.2-.18-1.2-.4 0-.22-.619-.4-1.376-.4-.757 0-1.488-.18-1.624-.4-.136-.22-.599-.4-1.029-.4-.43 0-1.184-.208-1.676-.462-1.879-.972-2.302-1.138-2.895-1.138-.336 0-.968-.18-1.405-.4l-1.59-.8c-.437-.22-1.046-.4-1.354-.4-.308 0-1.075-.269-1.705-.598-.63-.328-1.641-.598-2.246-.6-.605-.001-1.1-.182-1.1-.402 0-.22-.36-.4-.8-.4-.44 0-.8-.18-.8-.4 0-.22-.54-.4-1.2-.4-.66 0-1.2-.18-1.2-.4 0-.22-.36-.4-.8-.4-.44 0-.8-.18-.8-.4 0-.22-.45-.4-1-.4s-1-.18-1-.4c0-.22-.36-.4-.8-.4-.44 0-.8-.18-.8-.4 0-.22-.36-.4-.8-.4-.44 0-.8-.18-.8-.4 0-.22-.439-.4-.976-.4-.537 0-1.088-.18-1.224-.4-.136-.22-.597-.4-1.024-.4-.427 0-.776-.18-.776-.4 0-.22-.36-.4-.8-.4-.44 0-.8-.18-.8-.4 0-.22-.349-.4-.776-.4-.427 0-.888-.18-1.024-.4-.136-.22-.687-.4-1.224-.4-.537 0-.977-.135-.979-.3-.004-.359-1.941-1.3-2.677-1.3-.286 0-.52-.18-.52-.4 0-.22-.45-.4-1-.4s-1-.18-1-.4c0-.22-.36-.4-.8-.4-.44 0-.8-.18-.8-.4 0-.22-.349-.4-.776-.4-.427 0-.888-.18-1.024-.4-.136-.22-.687-.4-1.224-.4-.537 0-.976-.18-.976-.4 0-.22-.36-.4-.8-.4-.44 0-.8-.141-.8-.313 0-.172-.855-.555-1.9-.852-1.899-.54-4.085-1.378-5.395-2.069-.382-.201-.967-.366-1.3-.366-.333 0-.605-.18-.605-.4 0-.22-.439-.4-.976-.4-.537 0-1.088-.18-1.224-.4-.136-.22-.597-.4-1.024-.4-.427 0-.776-.18-.776-.4 0-.22-.54-.4-1.2-.4-.66 0-1.2-.18-1.2-.4 0-.22-.54-.4-1.2-.4-.66 0-1.2-.18-1.2-.4 0-.22-.54-.4-1.2-.4-.66 0-1.2-.18-1.2-.4 0-.22-.45-.4-1-.4s-1-.18-1-.4c0-.22-.54-.4-1.2-.4-.66 0-1.2-.18-1.2-.4 0-.22-.54-.4-1.2-.4-.66 0-1.2-.18-1.2-.4 0-.22-.72-.4-1.6-.4-.88 0-1.6-.16-1.6-.356 0-.35-1.337-.664-4.7-1.103-.935-.122-1.7-.383-1.7-.581 0-.198-.799-.36-1.776-.36s-1.888-.18-2.024-.4c-.136-.22-1.306-.4-2.6-.4s-2.464-.18-2.6-.4c-.315-.51-22.688-.546-23.22-.037M58.4 182c0 .225-1.125.4-2.576.4-1.417 0-2.688.18-2.824.4-.136.22-1.036.4-2 .4s-1.864.18-2 .4c-.136.22-.693.4-1.237.4-.995 0-3.074 1.801-4.063 3.52-1.219 2.119.082 7.489 1.931 7.972.423.111.769.36.769.555 0 .194.54.353 1.2.353.66 0 1.2.18 1.2.4 0 .22.54.4 1.2.4.66 0 1.2-.18 1.2-.4 0-.22.9-.4 2-.4s2-.18 2-.4c0-.22.99-.4 2.2-.4 1.21 0 2.2-.18 2.2-.4 0-.255 3.392-.4 9.376-.4 5.82 0 9.471.152 9.624.4.136.22 1.407.4 2.824.4 1.451 0 2.576.175 2.576.4 0 .22.889.4 1.976.4s2.088.18 2.224.4c.136.22 1.047.4 2.024.4.977 0 1.776.18 1.776.4 0 .22.63.4 1.4.4.77 0 1.4.18 1.4.4 0 .22.54.4 1.2.4.66 0 1.2.18 1.2.4 0 .22.619.4 1.376.4.757 0 1.488.18 1.624.4.136.22.777.4 1.424.4.647 0 1.176.147 1.176.328 0 .18.911.576 2.025.879 1.114.303 2.115.696 2.224.872.109.177.638.321 1.175.321s.976.18.976.4c0 .22.45.4 1 .4s1 .18 1 .4c0 .22.349.4.776.4.427 0 .888.18 1.024.4.136.22.687.4 1.224.4.537 0 .976.18.976.4 0 .22.236.4.525.4.481 0 3.163 1.128 4.726 1.987.358.197 1.303.481 2.1.63.797.15 1.449.432 1.449.628 0 .195.36.355.8.355.44 0 .8.18.8.4 0 .22.27.4.6.4.33 0 .6.18.6.4 0 .22.36.4.8.4.44 0 .8.18.8.4 0 .22.36.4.8.4.44 0 .8.18.8.4 0 .22.36.4.8.4.44 0 .8.18.8.4 0 .22.36.4.8.4.44 0 .8.18.8.4 0 .22.36.4.8.4.44 0 .8.18.8.4 0 .22.36.4.8.4.44 0 .8.18.8.4 0 .22.36.4.8.4.44 0 .8.18.8.4 0 .22.36.4.8.4.44 0 .8.158.8.351 0 .194.54.576 1.2.849.66.273 1.201.61 1.201.749.001.138.991.701 2.199 1.251 1.208.55 2.198 1.135 2.199 1.3 0 .165.346.3.768.3.421 0 .826.139.9.309.203.473 5.762 3.291 6.491 3.291.353 0 .642.18.642.4 0 .22.36.4.8.4.44 0 .8.18.8.4 0 .22.36.4.8.4.44 0 .8.18.8.4 0 .22.27.4.6.4.33 0 .6.18.6.4 0 .22.36.4.8.4.44 0 .8.18.8.4 0 .22.36.4.8.4.44 0 .8.18.8.4 0 .22.36.4.8.4.44 0 .8.18.8.4 0 .22.439.4.976.4.537 0 1.088.18 1.224.4.136.22.597.4 1.024.4.427 0 .776.18.776.4 0 .22.36.4.8.4.44 0 .8.18.8.4 0 .22.54.4 1.2.4.66 0 1.2.18 1.2.4 0 .22.36.4.8.4.44 0 .8.18.8.4 0 .22.439.4.976.4.537 0 1.088.18 1.224.4.136.22.687.4 1.224.4.537 0 .976.18.976.4 0 .22.439.4.976.4.537 0 1.088.18 1.224.4.136.22.777.4 1.424.4.647 0 1.176.18 1.176.4 0 .22.54.4 1.2.4.66 0 1.2.16 1.2.356 0 .196.63.466 1.4.6l2.804.488c.772.135 1.502.405 1.623.6.121.196.761.356 1.423.356.661 0 1.527.174 1.924.386.397.213 2.186.509 3.974.658 1.789.149 3.252.425 3.252.614 0 .188 1.26.342 2.8.342 1.6 0 2.8.171 2.8.4 0 .252 2.733.4 7.4.4s7.4.148 7.4.4c0 .22.36.4.8.4.44 0 .8-.18.8-.4 0-.248 2.133-.4 5.6-.4 3.467 0 5.6-.152 5.6-.4 0-.222 1.059-.4 2.376-.4 1.307 0 2.472-.155 2.589-.344.117-.189 1.613-.467 3.324-.618 2.997-.265 5.142-.748 6.606-1.487.382-.193 1.226-.351 1.876-.351.65 0 1.293-.18 1.429-.4.136-.22.676-.4 1.2-.4.524 0 1.064-.18 1.2-.4.136-.22.687-.4 1.224-.4.537 0 .976-.18.976-.4 0-.22.36-.4.8-.4.44 0 .8-.18.8-.4 0-.22.54-.4 1.2-.4.66 0 1.2-.18 1.2-.4 0-.22.36-.4.8-.4.44 0 .8-.18.8-.4 0-.22.439-.4.976-.4.537 0 1.088-.18 1.224-.4.136-.22.597-.4 1.024-.4.427 0 .776-.18.776-.4 0-.22.36-.4.8-.4.44 0 .8-.18.8-.4 0-.22.36-.4.8-.4.44 0 .8-.18.8-.4 0-.22.36-.4.8-.4.44 0 .8-.18.8-.4 0-.22.27-.4.6-.4.33 0 .6-.18.6-.4 0-.22.32-.4.712-.4.391 0 .971-.36 1.288-.8.317-.44.897-.8 1.288-.8.392 0 .712-.18.712-.4 0-.22.32-.4.712-.4.391 0 .971-.36 1.288-.8.317-.44.897-.8 1.288-.8.392 0 .712-.18.712-.4 0-.22.227-.4.505-.4.575 0 4.825-2.762 5.028-3.268.074-.183.344-.335.6-.339.53-.009 2.55-1.572 4.512-3.493.731-.715 1.526-1.3 1.768-1.3.241 0 1.316-.9 2.387-2s2.144-2 2.383-2c.239 0 1.393-.945 2.564-2.1a893.065 893.065 0 0 1 4.691-4.58c4.225-4.09 4.351-4.31 4.357-7.62.003-1.67-.165-2.9-.395-2.9-.22 0-.4-.283-.4-.629 0-1.438-2.902-2.971-5.627-2.971-2.644 0-4.275 1.063-9.328 6.079-2.615 2.597-4.892 4.721-5.059 4.721-.168 0-1.224.9-2.347 2-1.124 1.1-2.246 2-2.494 2-.248 0-.742.333-1.098.741-.356.407-1.187 1.022-1.847 1.366-.66.344-1.56.955-2 1.359-.44.404-1.295.989-1.9 1.302-.605.312-1.1.717-1.1.9 0 .182-.23.332-.512.332-.281 0-.771.36-1.088.8-.317.44-.897.8-1.288.8-.392 0-.712.18-.712.4 0 .22-.236.4-.525.4-.288 0-.911.36-1.383.8-.472.44-1.136.8-1.475.8-.339 0-.617.18-.617.4 0 .22-.345.4-.767.4-.421 0-.826.135-.9.3-.167.376-2.297 1.675-3.233 1.971-.385.122-.7.381-.7.576 0 .194-.349.353-.776.353-.427 0-.888.18-1.024.4-.136.22-.597.4-1.024.4-.427 0-.776.18-.776.4 0 .22-.36.4-.8.4-.44 0-.8.18-.8.4 0 .22-.36.4-.8.4-.44 0-.8.18-.8.4 0 .22-.54.4-1.2.4-.66 0-1.2.16-1.2.355 0 .195-.806.475-1.791.623-.985.147-1.895.438-2.023.645-.128.207-.615.377-1.081.377-.901 0-3.244.665-4.4 1.249-.382.193-1.237.351-1.9.351-.663 0-1.205.18-1.205.4 0 .22-.9.4-2 .4s-2 .18-2 .4c0 .222-1.067.4-2.4.4s-2.4.178-2.4.4c0 .243-1.8.4-4.6.4s-4.6.157-4.6.4c0 .228-1.192.4-2.776.4-1.527 0-2.888-.18-3.024-.4-.142-.229-2.204-.4-4.824-.4-2.784 0-4.576-.157-4.576-.4 0-.222-1.059-.4-2.376-.4-1.307 0-2.488-.18-2.624-.4-.136-.22-1.137-.4-2.224-.4-1.087 0-1.976-.18-1.976-.4 0-.22-.709-.4-1.576-.4-.867 0-1.688-.18-1.824-.4-.136-.22-.837-.4-1.557-.4s-1.435-.126-1.589-.279c-.378-.378-5.433-1.697-6.554-1.71-.495-.006-.9-.191-.9-.411 0-.22-.439-.4-.976-.4-.537 0-1.088-.18-1.224-.4-.136-.22-.597-.4-1.024-.4-.427 0-.776-.18-.776-.4 0-.22-.54-.4-1.2-.4-.66 0-1.2-.18-1.2-.4 0-.22-.36-.4-.8-.4-.44 0-.8-.18-.8-.4 0-.22-.54-.4-1.2-.4-.66 0-1.2-.18-1.2-.4 0-.22-.36-.4-.8-.4-.44 0-.8-.18-.8-.4 0-.22-.349-.4-.776-.4-.427 0-.888-.18-1.024-.4-.136-.22-.597-.4-1.024-.4-.427 0-.776-.18-.776-.4 0-.22-.36-.4-.8-.4-.44 0-.8-.18-.8-.4 0-.22-.36-.4-.8-.4-.44 0-.8-.18-.8-.4 0-.22-.36-.4-.8-.4-.44 0-.8-.18-.8-.4 0-.22-.36-.4-.8-.4-.44 0-.8-.18-.8-.4 0-.22-.36-.4-.8-.4-.44 0-.8-.18-.8-.4 0-.22-.36-.4-.8-.4-.44 0-.8-.18-.8-.4 0-.22-.36-.4-.8-.4-.44 0-.8-.151-.8-.336 0-.437-6.926-4.064-7.761-4.064-.352 0-.639-.18-.639-.4 0-.22-.236-.4-.525-.4-.288 0-.911-.36-1.383-.8-.472-.44-1.136-.8-1.475-.8-.339 0-.617-.18-.617-.4 0-.22-.36-.4-.8-.4-.44 0-.8-.18-.8-.4 0-.22-.36-.4-.8-.4-.44 0-.8-.18-.8-.4 0-.22-.36-.4-.8-.4-.44 0-.8-.18-.8-.4 0-.22-.27-.4-.6-.4-.33 0-.6-.18-.6-.4 0-.22-.36-.4-.8-.4-.44 0-.8-.18-.8-.4 0-.22-.36-.4-.8-.4-.44 0-.8-.18-.8-.4 0-.22-.36-.4-.8-.4-.44 0-.8-.18-.8-.4 0-.22-.36-.4-.8-.4-.44 0-.8-.18-.8-.4 0-.22-.36-.4-.8-.4-.44 0-.8-.18-.8-.4 0-.22-.36-.4-.8-.4-.44 0-.8-.18-.8-.4 0-.22-.36-.4-.8-.4-.44 0-.8-.18-.8-.4 0-.22-.36-.4-.8-.4-.44 0-.8-.18-.8-.4 0-.22-.315-.406-.7-.413-.385-.006-1.727-.523-2.982-1.147-1.255-.624-3.369-1.473-4.697-1.887-1.328-.414-2.416-.888-2.418-1.053-.001-.165-.543-.3-1.203-.3s-1.2-.18-1.2-.4c0-.22-.439-.4-.976-.4-.537 0-1.088-.18-1.224-.4-.136-.22-.597-.4-1.024-.4-.427 0-.776-.18-.776-.4 0-.22-.54-.4-1.2-.4-.66 0-1.2-.18-1.2-.4 0-.22-.54-.4-1.2-.4-.66 0-1.2-.18-1.2-.4 0-.22-.63-.4-1.4-.4-.77 0-1.4-.18-1.4-.4 0-.22-.54-.4-1.2-.4-.66 0-1.2-.18-1.2-.4 0-.22-.72-.4-1.6-.4-.88 0-1.6-.18-1.6-.4 0-.22-.72-.4-1.6-.4-.88 0-1.6-.18-1.6-.4 0-.22-.72-.4-1.6-.4-.88 0-1.6-.18-1.6-.4 0-.22-.979-.4-2.176-.4s-2.288-.18-2.424-.4c-.136-.22-1.587-.4-3.224-.4-1.717 0-2.976-.169-2.976-.4 0-.257-3.867-.4-10.8-.4-6.933 0-10.8.143-10.8.4M24 194.4c0 .22-.54.4-1.2.4-.66 0-1.2.18-1.2.4 0 .22-.32.4-.712.4-.391 0-.971.36-1.288.8-.317.44-.857.8-1.2.8-.343 0-.883.36-1.2.8-.317.44-.825.8-1.128.8-.303 0-1.055.54-1.672 1.2-.617.66-1.297 1.2-1.512 1.2-.215 0-1.133.72-2.04 1.6-.907.88-1.743 1.6-1.857 1.6-.115 0-1.181.945-2.37 2.1-2.077 2.019-3.951 3.654-4.844 4.228C-1.331 212.725-.35 222.4 2.96 222.4c.352 0 .64.18.64.4 0 1.338 4.872.246 6.696-1.5.517-.495 1.069-.9 1.226-.9.158 0 1.887-1.53 3.843-3.4 1.956-1.87 3.727-3.4 3.935-3.4.209 0 .883-.54 1.5-1.2.617-.66 1.292-1.2 1.501-1.2.209 0 .926-.521 1.592-1.158.666-.637 1.593-1.279 2.059-1.427.467-.148.848-.437.848-.642 0-.205.235-.373.522-.373.775 0 3.478-2.607 3.478-3.354 0-.355.18-.646.4-.646.222 0 .4-1.067.4-2.4s-.178-2.4-.4-2.4c-.22 0-.4-.288-.4-.64 0-1.029-2.593-3.36-3.736-3.36-.559 0-1.128-.18-1.264-.4-.136-.22-.597-.4-1.024-.4-.427 0-.776.18-.776.4m46 22c0 .243-1.792.4-4.576.4-2.62 0-4.682.171-4.824.4-.136.22-1.047.4-2.024.4-.977 0-1.776.18-1.776.4 0 .22-.72.4-1.6.4-.88 0-1.6.18-1.6.4 0 .22-.54.4-1.2.4-.66 0-1.2.18-1.2.4 0 .22-.54.4-1.2.4-.66 0-1.2.18-1.2.4 0 .22-.54.4-1.2.4-.66 0-1.2.18-1.2.4 0 .22-.36.4-.8.4-.44 0-.8.18-.8.4 0 .22-.349.4-.776.4-.427 0-.888.18-1.024.4-.136.22-.597.4-1.024.4-.427 0-.776.18-.776.4 0 .22-.36.4-.8.4-.44 0-.8.18-.8.4 0 .22-.338.4-.751.4s-.975.27-1.249.6c-.274.33-.836.6-1.249.6-.413 0-.751.159-.751.353 0 .195-.315.454-.7.576-.849.269-2.874 1.485-3.616 2.171-.298.275-.7.5-.894.5-.195 0-.804.45-1.354 1s-1.154 1-1.343 1c-.189 0-.861.54-1.493 1.2-.632.66-1.298 1.2-1.479 1.2-.353 0-9.521 9.051-9.521 9.399 0 .115-.54.773-1.2 1.464-.66.691-1.2 1.499-1.2 1.796 0 .298-.15.541-.332.541-.183 0-.588.495-.9 1.1-.312.605-.678 1.19-.815 1.3-.467.377-2.353 4.373-2.353 4.987 0 .337-.18.613-.4.613-.22 0-.4.36-.4.8 0 .44-.18.8-.4.8-.22 0-.4.439-.4.976 0 .537-.18 1.088-.4 1.224-.22.136-.4.687-.4 1.224 0 .537-.18.976-.4.976-.22 0-.4.72-.4 1.6 0 .88-.18 1.6-.4 1.6-.225 0-.4 1.125-.4 2.576 0 1.417-.18 2.688-.4 2.824-.221.137-.4 1.937-.4 4.024 0 2.251.162 3.776.4 3.776.229 0 .4 1.2.4 2.8 0 1.6.171 2.8.4 2.8.22 0 .4.72.4 1.6 0 .88.18 1.6.4 1.6.22 0 .4.54.4 1.2 0 .66.18 1.2.4 1.2.22 0 .4.349.4.776 0 .427.18.888.4 1.024.22.136.4.582.4.99 0 .409.142.803.316.877.174.073.8 1.067 1.391 2.208.971 1.875 3.284 4.734 5.233 6.467.407.362 1.56 1.423 2.563 2.358 1.004.935 2.066 1.7 2.361 1.7.295 0 .536.143.536.319 0 .424 5.654 3.281 6.494 3.281.362 0 .77.18.906.4.136.22.777.4 1.424.4.647 0 1.176.18 1.176.4 0 .22.72.4 1.6.4.88 0 1.6.18 1.6.4 0 .251 2.6.4 7 .4s7-.149 7-.4c0-.22.72-.4 1.6-.4.88 0 1.6-.18 1.6-.4 0-.22.54-.4 1.2-.4.66 0 1.2-.18 1.2-.4 0-.22.297-.4.66-.4.944 0 5.02-2.029 5.787-2.881.356-.396.83-.719 1.053-.719.62 0 5.7-5.063 5.7-5.681 0-.298.36-.802.8-1.119.44-.317.8-.897.8-1.288 0-.392.18-.712.4-.712.22 0 .4-.36.4-.8 0-.44.18-.8.4-.8.22 0 .4-.36.4-.8 0-.44.18-.8.4-.8.22 0 .4-.439.4-.976 0-.537.18-1.088.4-1.224.22-.136.4-.856.4-1.6 0-.744.18-1.464.4-1.6.233-.144.4-2.396.4-5.4 0-3.004-.167-5.256-.4-5.4-.22-.136-.4-.867-.4-1.624 0-.757-.18-1.376-.4-1.376-.22 0-.4-.54-.4-1.2 0-.66-.18-1.2-.4-1.2-.22 0-.4-.36-.4-.8 0-.44-.18-.8-.4-.8-.22 0-.4-.272-.4-.604 0-.332-.54-1.168-1.2-1.859-.66-.691-1.2-1.427-1.2-1.636 0-.459-2.345-2.701-2.824-2.701-.187 0-.79-.45-1.34-1s-1.278-1-1.618-1c-.34 0-.618-.148-.618-.329 0-.549-3.984-2.167-5.858-2.379-.968-.109-1.857-.354-1.975-.545-.306-.496-9.767-.444-9.767.053 0 .22-.585.41-1.3.422-1.606.028-4.269 1.082-5.756 2.279-.615.494-1.259.899-1.431.899-.172 0-.313.27-.313.6 0 .33-.18.6-.4.6-.22 0-.4.452-.4 1.005 0 .553-.223 1.363-.496 1.8-.395.633-.395.957 0 1.59.273.437.496 1.175.496 1.64 0 .989 2.428 3.565 3.36 3.565.352 0 .64.18.64.4 0 .57 3.634.496 4.917-.1.592-.275 1.078-.635 1.08-.8.002-.165.352-.3.779-.3.427 0 .888-.18 1.024-.4.136-.22 1.407-.4 2.824-.4 1.451 0 2.576.175 2.576.4 0 .22.29.4.646.4 1.546 0 6.554 3.589 6.554 4.697 0 .277.18.503.4.503.22 0 .4.54.4 1.2 0 .66.18 1.2.4 1.2.233 0 .4 1.333.4 3.2 0 1.867-.167 3.2-.4 3.2-.22 0-.4.54-.4 1.2 0 .66-.18 1.2-.4 1.2-.22 0-.4.36-.4.8 0 .44-.18.8-.4.8-.22 0-.402.315-.404.7-.002.385-.576 1.15-1.276 1.7-.7.55-1.68 1.405-2.178 1.9-.498.495-1.184.9-1.524.9-.34 0-.619.135-.621.3-.004.359-1.941 1.3-2.677 1.3-.286 0-.52.18-.52.4 0 .22-.54.4-1.2.4-.66 0-1.2.18-1.2.4 0 .243-1.8.4-4.6.4s-4.6-.157-4.6-.4c0-.22-.529-.4-1.176-.4-.647 0-1.288-.18-1.424-.4-.136-.22-.687-.4-1.224-.4-.537 0-.976-.18-.976-.4 0-.22-.36-.4-.8-.4-.44 0-.8-.151-.8-.336 0-.184-.457-.544-1.015-.798-2.183-.995-7.385-6.244-7.385-7.452 0-.338-.18-.614-.4-.614-.22 0-.4-.36-.4-.8 0-.44-.18-.8-.4-.8-.22 0-.4-.36-.4-.8 0-.44-.18-.8-.4-.8-.22 0-.4-.529-.4-1.176 0-.647-.18-1.288-.4-1.424-.22-.136-.4-1.137-.4-2.224 0-1.087-.18-1.976-.4-1.976-.229 0-.4-1.2-.4-2.8 0-1.6.171-2.8.4-2.8.22 0 .4-.9.4-2s.18-2 .4-2c.22 0 .4-.54.4-1.2 0-.66.18-1.2.4-1.2.22 0 .4-.439.4-.976 0-.537.18-1.088.4-1.224.22-.136.4-.597.4-1.024 0-.427.18-.776.4-.776.22 0 .4-.36.4-.8 0-.44.18-.8.4-.8.22 0 .4-.242.4-.538 0-.296.36-.864.8-1.262.44-.398.8-.935.8-1.192 0-.258.45-.891 1-1.408.55-.517 1-1.18 1-1.474 0-.642 8.199-8.926 8.835-8.926.244 0 .948-.54 1.565-1.2.617-.66 1.318-1.2 1.56-1.2.241 0 1.315-.63 2.387-1.4 1.072-.77 2.152-1.4 2.401-1.4.248 0 .453-.135.455-.3.002-.165.407-.499.9-.741.493-.243 1.95-1.008 3.238-1.7 1.287-.693 2.682-1.259 3.1-1.259.417 0 .759-.18.759-.4 0-.22.36-.4.8-.4.44 0 .8-.18.8-.4 0-.22.439-.4.976-.4.537 0 1.088-.18 1.224-.4.136-.22.687-.4 1.224-.4.537 0 .976-.18.976-.4 0-.22.54-.4 1.2-.4.66 0 1.2-.18 1.2-.4 0-.22.709-.4 1.576-.4.867 0 1.688-.18 1.824-.4.136-.22 1.666-.4 3.4-.4s3.264-.18 3.4-.4c.136-.22 1.137-.4 2.224-.4 1.087 0 1.976.18 1.976.4 0 .237 1.467.4 3.6.4s3.6.163 3.6.4c0 .22.889.4 1.976.4s2.088.18 2.224.4c.136.22.957.4 1.824.4.867 0 1.576.18 1.576.4 0 .22.54.4 1.2.4.66 0 1.2.18 1.2.4 0 .22.54.4 1.2.4.66 0 1.2.18 1.2.4 0 .22.54.4 1.2.4.66 0 1.2.18 1.2.4 0 .22.439.4.976.4.537 0 1.088.18 1.224.4.136.22.687.4 1.224.4.537 0 .976.18.976.4 0 .22.349.4.776.4.427 0 .888.18 1.024.4.136.22.687.4 1.224.4.537 0 .976.18.976.4 0 .22.36.4.8.4.44 0 .8.18.8.4 0 .22.275.4.611.4.337 0 1.939.63 3.562 1.4 1.623.77 3.417 1.4 3.989 1.4.571 0 1.038.18 1.038.4 0 .22.72.4 1.6.4.88 0 1.6-.18 1.6-.4 0-.22.527-.4 1.171-.4 2.218 0 3.629-2.369 3.629-6.091 0-1.71-.137-3.109-.305-3.109-.168 0-.483-.405-.7-.9-.217-.495-.8-1.078-1.295-1.295-.495-.217-.9-.532-.9-.7 0-.168-.36-.305-.8-.305-.44 0-.8-.18-.8-.4 0-.22-.23-.4-.51-.4-.281 0-1.586-.534-2.9-1.187-1.315-.654-2.594-1.194-2.844-1.2-.25-.007-.97-.282-1.6-.611-.63-.328-1.461-.598-1.846-.6-.385-.001-.7-.182-.7-.402 0-.22-.45-.4-1-.4s-1-.18-1-.4c0-.22-.54-.4-1.2-.4-.66 0-1.2-.18-1.2-.4 0-.22-.349-.4-.776-.4-.427 0-.888-.18-1.024-.4-.136-.22-.676-.4-1.2-.4-.524 0-1.064-.18-1.2-.4-.136-.22-.867-.4-1.624-.4-.757 0-1.376-.18-1.376-.4 0-.22-.54-.4-1.2-.4-.66 0-1.2-.18-1.2-.4 0-.22-.619-.4-1.376-.4-.757 0-1.488-.18-1.624-.4-.136-.22-.957-.4-1.824-.4-.867 0-1.576-.18-1.576-.4 0-.22-.979-.4-2.176-.4s-2.288-.18-2.424-.4c-.142-.23-2.263-.4-5-.4s-4.858-.17-5-.4c-.136-.22-.687-.4-1.224-.4-.537 0-.976.18-.976.4M173.2 258c0 .22-.283.4-.629.4-.718 0-1.771.934-1.771 1.571 0 .236-.18.429-.4.429-.233 0-.4 1.333-.4 3.2 0 1.867.167 3.2.4 3.2.22 0 .4.283.4.629 0 .345 3.51 4.124 7.8 8.396 7.175 7.146 7.8 7.881 7.8 9.172 0 .772-.18 1.403-.4 1.403-.22 0-.4.72-.4 1.6 0 .88-.18 1.6-.4 1.6-.22 0-.4.72-.4 1.6 0 .88-.18 1.6-.4 1.6-.22 0-.4.99-.4 2.2 0 1.21-.18 2.2-.4 2.2-.256 0-.4 3.725-.4 10.376 0 6.487.15 10.469.4 10.624.22.136.4 1.126.4 2.2 0 1.074.18 2.064.4 2.2.22.136.4.957.4 1.824 0 .867.18 1.576.4 1.576.22 0 .4.72.4 1.6 0 .88.18 1.6.4 1.6.22 0 .4.54.4 1.2 0 .66.18 1.2.4 1.2.22 0 .4.439.4.976 0 .537.18 1.088.4 1.224.22.136.4.597.4 1.024 0 .427.18.776.4.776.22 0 .4.349.4.776 0 .427.18.888.4 1.024.22.136.4.597.4 1.024 0 .427.18.776.4.776.22 0 .4.36.4.8 0 .44.18.8.4.8.22 0 .4.36.4.8 0 .44.135.8.301.8.165 0 .81 1.08 1.434 2.4.623 1.32 1.298 2.4 1.499 2.4.201 0 .366.236.366.525 0 .288.36.911.8 1.383.44.472.8 1.024.8 1.227 0 .203.72 1.11 1.6 2.017.88.907 1.6 1.794 1.6 1.972 0 .34 8.29 8.476 8.636 8.476.11 0 .62.405 1.132.9 1.525 1.474 2.616 2.3 3.037 2.3.217 0 .395.15.395.332 0 .183.495.588 1.1.9.605.313 1.449.883 1.875 1.268.427.385 1.012.7 1.3.7.289 0 .525.18.525.4 0 .22.36.4.8.4.44 0 .8.18.8.4 0 .22.36.4.8.4.44 0 .8.18.8.4 0 .22.36.4.8.4.44 0 .8.18.8.4 0 .22.36.4.8.4.44 0 .8.18.8.4 0 .22.345.4.767.4.421 0 .826.135.9.3.19.429 3.963 1.704 5.033 1.702.495-.001.9.178.9.398 0 .22.54.4 1.2.4.66 0 1.2.18 1.2.4 0 .22.72.4 1.6.4.88 0 1.6.18 1.6.4 0 .22.72.4 1.6.4.88 0 1.6.18 1.6.4 0 .225 1.125.4 2.576.4 1.417 0 2.688.18 2.824.4.153.247 3.604.4 9.024.4 5.584 0 8.776-.145 8.776-.4 0-.222 1.067-.4 2.4-.4s2.4-.178 2.4-.4c0-.22.799-.4 1.776-.4s1.888-.18 2.024-.4c.136-.22.766-.4 1.4-.4.634 0 1.264-.18 1.4-.4.136-.22.777-.4 1.424-.4.647 0 1.176-.164 1.176-.365 0-.201.72-.486 1.6-.635.88-.149 1.6-.434 1.6-.635s.246-.365.546-.365c.776 0 5.054-4.203 5.054-4.965 0-.349.136-.635.302-.635.587 0 2.898-6.305 2.898-7.905 0-.466.161-.947.358-1.069.357-.221.463-.75 1.206-6.026.879-6.238.443-21.75-.765-27.2a85.32 85.32 0 0 1-.665-3.304c-.122-.717-.383-1.402-.578-1.523-.196-.121-.356-.649-.356-1.173s-.18-1.064-.4-1.2c-.22-.136-.4-.687-.4-1.224 0-.537-.18-.976-.4-.976-.22 0-.4-.54-.4-1.2 0-.66-.18-1.2-.4-1.2-.22 0-.4-.36-.4-.8 0-.44-.18-.8-.4-.8-.22 0-.4-.45-.4-1s-.18-1-.4-1c-.22 0-.4-.36-.4-.8 0-.44-.18-.8-.4-.8-.22 0-.4-.278-.4-.617 0-.339-.36-1.003-.8-1.475-.44-.472-.8-1.095-.8-1.383 0-.289-.18-.525-.4-.525-.22 0-.4-.32-.4-.712 0-.391-.36-.971-.8-1.288-.44-.317-.8-.857-.8-1.2 0-.343-.36-.883-.8-1.2-.44-.317-.8-.825-.8-1.128 0-.303-.54-1.055-1.2-1.672-.66-.617-1.2-1.319-1.2-1.56 0-.242-.18-.44-.4-.44-.22 0-.4-.221-.4-.491 0-.589-8.662-9.109-9.261-9.109-.23 0-.922-.54-1.539-1.2-.617-.66-1.274-1.2-1.46-1.201-.187 0-.97-.54-1.74-1.199s-1.625-1.199-1.9-1.199c-.275-.001-.5-.181-.5-.401 0-.22-.193-.4-.428-.4s-1.18-.508-2.1-1.128c-1.773-1.197-6.762-3.672-7.401-3.672-.209 0-.895-.269-1.525-.598-.63-.328-1.641-.598-2.246-.6-.605-.001-1.1-.182-1.1-.402 0-.22-.54-.4-1.2-.4-.66 0-1.2-.18-1.2-.4 0-.22-.529-.4-1.176-.4-.647 0-1.288-.18-1.424-.4-.136-.22-.957-.4-1.824-.4-.867 0-1.576-.18-1.576-.4 0-.22-.9-.4-2-.4s-2-.18-2-.4c0-.244-1.84-.4-4.72-.4-2.866 0-4.891-.171-5.155-.435-.313-.313-.51-.313-.703 0-.174.281-2.318.435-6.046.435-3.584 0-5.776.152-5.776.4 0 .22-.9.4-2 .4s-2 .18-2 .4c0 .22-.799.4-1.776.4s-1.888.18-2.024.4c-.136.22-.777.4-1.424.4-.647 0-1.176.18-1.176.4 0 1.47-3.082.263-5.2-2.036-2.958-3.212-11.604-11.943-12.937-13.064-1.149-.968-7.463-1.391-7.463-.5m57.2 25.384c6.793 1.321 13.492 3.578 17.776 5.989l3.224 1.817c1.619.914 3.833 2.387 4.2 2.793.11.122.92.748 1.8 1.392 6.757 4.943 14.595 15.371 17.758 23.625a328.65 328.65 0 0 0 1.241 3.2 33.576 33.576 0 0 1 1.535 5c.225.99.597 2.61.825 3.6 1.719 7.458.891 25.11-1.196 25.512-.591.114-71.963-70.803-71.963-71.504 0-.309 1.944-.89 5.2-1.555 3.02-.616 16.212-.528 19.6.131m3.19 45.606c24.748 24.749 35.661 35.919 35.374 36.206-1.394 1.394-14.961 2.449-21.164 1.646-15.52-2.008-30.556-10.211-39.477-21.538-5.704-7.242-9.347-14.96-11.896-25.204-1.831-7.358-1.163-26.9.919-26.9.251 0 16.561 16.106 36.244 35.79" fill="#040404"/><path id="path2" d="M343.455 31.59c1.479 2.966 3.772 3.597 9.607 2.646 7.355-1.198 22.327-.607 23.877.943.379.379-69.764 70.821-70.521 70.821-.222 0-.5-.495-.62-1.1-.119-.605-.429-2-.688-3.1-.645-2.741-.608-16.553.053-19.4.931-4.014 1.286-5.377 2.085-8 .823-2.697.92-2.953 2.312-6.096.462-1.042.84-1.982.84-2.087 0-2.475 8.827-13.673 15.067-19.113 5.068-4.418 5.677-5.812 4.327-9.904l-.593-1.8.263 2.2c.585 4.905.488 5.076-6.01 10.549-5.985 5.041-12.293 14.213-15.441 22.451-.168.44-.485 1.25-.704 1.8-.578 1.453-1.126 3.336-2.151 7.4-1.79 7.095-1.035 27 1.024 27 .696 0 71.873-71.234 71.699-71.757-.573-1.72-15.528-2.779-22.681-1.605-7.973 1.308-9.471 1.06-11.123-1.844-.881-1.548-1.394-1.551-.622-.004m6.561 47.794c-19.68 19.681-35.673 35.892-35.54 36.025.623.624 4.998 1.424 9.616 1.759 30.506 2.215 55.368-15.987 63.059-46.168 1.811-7.106 1.146-27.4-.898-27.4-.25 0-16.557 16.103-36.237 35.784m37.383-28.865c1.691 13.661-.908 25.947-8.169 38.613-.42.732-1.048 1.646-1.397 2.031-.348.385-.633.911-.633 1.168 0 .258-.141.469-.314.469-.172 0-.658.585-1.078 1.3-1.752 2.976-11.874 12.169-15.388 13.975-.561.288-1.11.618-1.22.734-.333.35-6.876 3.465-8.8 4.189-3.466 1.305-4.521 1.605-10.8 3.077-4.627 1.084-19.442.629-23.981-.737-.366-.11 12.529-13.285 34.994-35.751 30.779-30.781 35.615-35.464 35.879-34.75.168.454.576 3.011.907 5.682M210.8 283.253c-3.256.665-5.2 1.246-5.2 1.555 0 .701 71.372 71.618 71.963 71.504 2.087-.402 2.915-18.054 1.196-25.512-.228-.99-.6-2.61-.825-3.6a33.576 33.576 0 0 0-1.535-5c-.177-.44-.735-1.88-1.241-3.2-3.163-8.254-11.001-18.682-17.758-23.625-.88-.644-1.69-1.27-1.8-1.392-.367-.406-2.581-1.879-4.2-2.793l-3.224-1.817c-4.284-2.411-10.983-4.668-17.776-5.989-3.388-.659-16.58-.747-19.6-.131m20 .663c.77.205 2.39.595 3.6.865 1.21.271 3.28.848 4.6 1.282 15.83 5.208 29.032 17.356 35.36 32.537.734 1.76 1.493 3.513 1.687 3.895a3.88 3.88 0 0 1 .353 1.476c0 .43.16.881.356 1.002.195.121.456.806.578 1.523.122.717.414 2.204.65 3.304 1.556 7.259 1.262 23.529-.464 25.68-.317.396-68.007-66.64-70.65-69.967-1.453-1.829 18.152-3.137 23.93-1.597M196.627 294.5c-.879 4.339-1.099 6.29-1.296 11.5-.208 5.509.17 10.381 1.096 14.1 1.523 6.122 2.52 8.998 4.75 13.7 8.549 18.031 25.958 30.369 46.623 33.042 6.203.803 19.77-.252 21.164-1.646.441-.441-70.738-71.996-71.618-71.996-.25 0-.574.585-.719 1.3m36.556 34.748c24.758 24.735 35.155 35.374 34.858 35.671-1.153 1.153-17.706 1.959-22.241 1.083-3.482-.673-9.071-2.01-10-2.392a63.82 63.82 0 0 0-2.2-.83c-9.579-3.429-22.464-13.304-26.72-20.48-.359-.605-.794-1.1-.966-1.1-.173 0-.314-.197-.314-.438s-.345-.923-.767-1.516c-6.286-8.828-10.371-25.925-8.832-36.969.727-5.22 1.323-8.277 1.614-8.277.158 0 16.163 15.862 35.568 35.248" fill="#347244"/></g></svg>